<?xml version="1.0" encoding="UTF-8" standalone="no"?>
<svg width="330px" height="80px" viewBox="0 0 330 80" version="1.1" xmlns="http://www.w3.org/2000/svg" xmlns:xlink="http://www.w3.org/1999/xlink">
    <!-- Generator: Sketch 47.1 (45422) - http://www.bohemiancoding.com/sketch -->
    <title>DS9</title>
    <desc>Created with Sketch.</desc>
    <defs>
        <polygon id="path-1" points="329.39 0.8291 329.39 79 0 79 0 0.8291"></polygon>
    </defs>
    <g id="Page-1" stroke="none" stroke-width="1" fill="none" fill-rule="evenodd">
        <g>
            <path d="M61.0286,51.333 C62.4286,51.333 63.6606,51.277 64.6126,51.053 L51.9566,44.053 L56.9966,35.765 L68.4766,43.213 C68.5326,42.149 68.5326,41.085 68.5326,39.629 C68.5326,34.981 68.0846,33.077 66.7406,32.069 C65.9566,31.453 64.8366,31.061 63.5486,30.949 C62.8766,30.837 54.7006,30.725 51.2846,30.725 C43.3886,30.725 42.7726,30.781 40.9246,32.125 C39.1326,33.469 38.6846,35.093 38.6846,40.861 C38.6846,47.525 39.0206,48.869 40.7006,50.157 C41.9326,51.053 43.5566,51.333 46.6926,51.333 L61.0286,51.333 Z M25.8046,35.317 C25.8046,29.493 26.9246,26.301 29.8366,23.837 C33.2526,20.869 36.7246,20.365 51.5086,20.365 C69.3726,20.365 71.7246,20.589 75.1966,22.325 C78.2766,23.837 80.0686,26.245 80.8526,29.493 C81.3006,31.509 81.4126,34.365 81.4126,42.765 C81.4126,46.349 81.3566,48.813 81.1326,50.661 L85.6686,53.349 L81.1886,61.693 L76.9886,58.893 C74.0766,61.133 69.3726,61.749 59.4606,61.749 C38.5726,61.749 36.1646,61.581 33.0286,60.125 C28.0446,57.829 25.8046,53.405 25.8046,45.957 L25.8046,35.317 Z" id="Fill-1" fill="#231F20"></path>
            <path d="M99.1643,32.7969 L99.1643,48.8689 C99.1643,52.4529 100.7883,53.4609 106.2763,53.4609 C113.5003,53.4609 115.4603,52.2849 115.4603,48.0289 L115.4603,32.7969 L126.1563,32.7969 L126.1563,61.3009 L115.9643,61.3009 L115.9643,55.9249 C115.1243,57.9409 114.5643,58.8929 113.6683,59.6769 C111.9323,61.0769 108.4603,61.7489 103.4763,61.7489 C92.6683,61.7489 88.4123,58.3889 88.4123,49.8209 L88.4123,32.7969 L99.1643,32.7969 Z" id="Fill-3" fill="#231F20"></path>
            <path d="M142.2278,52.229 C142.2278,53.237 142.6758,54.133 143.4038,54.469 C144.2998,54.917 145.6438,54.973 150.5718,54.973 C157.5718,54.973 158.9718,54.469 158.9718,51.949 C158.9718,49.317 158.2998,49.149 148.6118,49.149 C143.6278,49.149 142.2278,49.821 142.2278,52.229 L142.2278,52.229 Z M159.3638,57.941 C156.2838,61.357 155.1078,61.749 145.6438,61.749 C138.4758,61.749 136.1798,61.301 134.1638,59.677 C132.5398,58.333 131.7558,55.925 131.7558,52.285 C131.7558,48.701 132.4838,46.405 134.1078,45.229 C136.1238,43.717 139.4838,42.989 144.5238,42.989 C150.1238,42.989 154.2678,43.213 155.7798,43.661 C156.6758,43.941 157.4598,44.389 158.8038,45.453 L158.8038,44.725 C158.8038,39.573 158.4678,39.125 152.8678,39.125 L146.8198,39.125 C144.6918,39.125 143.5158,39.349 143.4038,41.253 L132.9878,41.253 L132.9878,40.861 C132.9878,34.421 136.3478,32.349 145.5878,32.349 L157.6278,32.349 C165.5238,32.349 169.4438,35.709 169.4438,42.933 L169.4438,61.301 L159.3638,61.301 L159.3638,57.941 Z" id="Fill-5" fill="#231F20"></path>
            <path d="M175.8274,32.7969 L186.0194,32.7969 L186.0194,38.2849 C187.2514,34.1409 190.3314,32.3489 196.2674,32.3489 C204.3314,32.3489 207.3554,35.3729 207.3554,43.2689 C207.3554,44.1649 207.3554,44.7809 207.2994,46.0689 L198.0034,46.0689 C197.9474,43.8289 197.7794,42.9329 197.3314,42.2609 C196.6594,41.3649 194.8114,40.7489 192.6274,40.7489 C188.7074,40.7489 186.5234,42.4849 186.5234,45.6769 L186.5234,61.3009 L175.8274,61.3009 L175.8274,32.7969 Z" id="Fill-7" fill="#231F20"></path>
            <polygon id="Fill-9" fill="#231F20" points="211.6672 20.813 222.4192 20.813 222.4192 42.093 224.6592 42.093 234.0672 32.797 248.0112 32.797 233.7872 45.901 249.8032 61.301 235.8032 61.301 224.4912 49.933 222.4192 49.933 222.4192 61.301 211.6672 61.301"></polygon>
            <path d="M250.4636,33.6367 L251.6786,33.6367 C253.7036,33.6367 254.3786,32.9167 254.3786,30.6217 C254.3786,30.2617 254.3786,29.9017 254.2886,29.4967 L251.9486,29.4967 L251.9486,20.7667 L261.1286,20.7667 L261.1286,31.3417 C261.1286,37.1017 259.1036,38.7667 252.3086,38.7667 L250.4636,38.7667 L250.4636,33.6367 Z" id="Fill-11" fill="#231F20"></path>
            <path d="M292.657,41.085 C292.209,39.573 290.754,39.125 286.217,39.125 C281.905,39.125 278.881,39.293 278.153,39.573 C277.593,39.797 277.201,40.413 277.201,41.197 C277.201,41.925 277.593,42.373 278.321,42.597 C279.217,42.821 282.241,42.989 286.105,42.989 L288.345,42.989 C296.634,43.045 298.929,43.381 301.113,44.501 C304.081,45.957 305.09,48.029 305.09,52.285 C305.09,59.565 301.842,61.749 290.809,61.749 L279.329,61.749 C270.145,61.749 266.113,59.117 266.113,53.181 L266.113,52.453 L277.201,52.453 C277.257,54.525 278.993,55.029 285.993,55.029 C292.601,55.029 294.001,54.581 294.001,52.733 C294.001,51.053 292.993,50.661 289.241,50.605 L279.945,50.437 C273.841,50.381 271.713,50.045 269.753,48.869 C267.345,47.469 266.282,44.949 266.282,41.085 C266.282,37.557 267.233,35.485 269.249,34.197 C271.601,32.797 274.681,32.349 282.633,32.349 C300.553,32.349 303.241,33.469 303.466,41.085 L292.657,41.085 Z" id="Fill-13" fill="#231F20"></path>
            <g id="Group-17" transform="translate(0.000000, 0.170900)">
                <mask id="mask-2" fill="white">
                    <use xlink:href="#path-1"></use>
                </mask>
                <g id="Clip-16"></g>
                <path d="M19.3035,5.8291 C11.4165,5.8291 4.9995,12.2461 4.9995,20.1321 L4.9995,59.6971 C4.9995,67.5831 11.4165,74.0001 19.3035,74.0001 L310.0875,74.0001 C317.9745,74.0001 324.3905,67.5831 324.3905,59.6971 L324.3905,20.1321 C324.3905,12.2461 317.9745,5.8291 310.0875,5.8291 L19.3035,5.8291 Z M310.0875,79.0001 L19.3035,79.0001 C8.6585,79.0001 -0.0005,70.3411 -0.0005,59.6971 L-0.0005,20.1321 C-0.0005,9.4881 8.6585,0.8291 19.3035,0.8291 L310.0875,0.8291 C320.7315,0.8291 329.3905,9.4881 329.3905,20.1321 L329.3905,59.6971 C329.3905,70.3411 320.7315,79.0001 310.0875,79.0001 L310.0875,79.0001 Z" id="Fill-15" fill="#231F20" mask="url(#mask-2)"></path>
            </g>
        </g>
    </g>
</svg>