<svg xmlns="http://www.w3.org/2000/svg" viewBox="0 0 300 44.45"><defs><style>.cls-1{fill:#f7f7f7;}</style></defs><title>Asset 8</title><g id="Layer_2" data-name="Layer 2"><g id="Layer_1-2" data-name="Layer 1"><path class="cls-1" d="M0,16.06C0,9.81,1.2,6.38,4.33,3.73,8,.54,11.73,0,27.61,0,46.8,0,49.32.24,53.06,2.11a11,11,0,0,1,6.07,7.7c.48,2.17.6,5.23.6,14.26a76.09,76.09,0,0,1-.3,8.48l4.87,2.89-4.81,9-4.51-3c-3.13,2.41-8.18,3.07-18.83,3.07-22.44,0-25-.18-28.39-1.74C2.41,40.24,0,35.49,0,27.49Zm37.84,17.2a17.86,17.86,0,0,0,3.85-.3l-13.6-7.52,5.41-8.9,12.33,8c.06-1.14.06-2.29.06-3.85,0-5-.48-7-1.92-8.12a6.49,6.49,0,0,0-3.43-1.2c-.72-.12-9.5-.24-13.17-.24-8.48,0-9.14.06-11.13,1.5S13.84,15.82,13.84,22c0,7.16.36,8.6,2.17,10,1.32,1,3.07,1.26,6.44,1.26Z"/><path class="cls-1" d="M78.8,13.35V30.62c0,3.85,1.74,4.93,7.64,4.93,7.76,0,9.87-1.26,9.87-5.84V13.35h11.49V44H96.85V38.2c-.9,2.17-1.5,3.19-2.47,4-1.87,1.5-5.59,2.23-10.95,2.23-11.61,0-16.18-3.61-16.18-12.81V13.35Z"/><path class="cls-1" d="M143.47,40.36c-3.31,3.67-4.57,4.09-14.74,4.09-7.7,0-10.17-.48-12.33-2.23-1.74-1.44-2.59-4-2.59-7.94s.78-6.32,2.53-7.58c2.17-1.62,5.77-2.41,11.19-2.41,6,0,10.47.24,12.09.72a9.75,9.75,0,0,1,3.25,1.92v-.78c0-5.53-.36-6-6.38-6H130c-2.29,0-3.55.24-3.67,2.29H115.13V22c0-6.92,3.61-9.14,13.53-9.14H141.6c8.48,0,12.69,3.61,12.69,11.37V44H143.47Zm-18.41-6.14a2.58,2.58,0,0,0,1.26,2.41c1,.48,2.41.54,7.7.54,7.52,0,9-.54,9-3.25s-.72-3-11.13-3C126.56,30.92,125.06,31.64,125.06,34.23Z"/><path class="cls-1" d="M161.15,13.35H172.1v5.89c1.32-4.45,4.63-6.38,11-6.38,8.66,0,11.91,3.25,11.91,11.73,0,1,0,1.62-.06,3H185c-.06-2.41-.24-3.37-.72-4.09-.72-1-2.71-1.62-5.05-1.62-4.21,0-6.56,1.86-6.56,5.29V44H161.15Z"/><path class="cls-1" d="M199.65.48H211.2V23.34h2.41l10.11-10h15L223.41,27.43,240.61,44h-15L213.42,31.76H211.2V44H199.65Z"/><path class="cls-1" d="M241.32,14.26h1.3c2.18,0,2.9-.77,2.9-3.24a5.32,5.32,0,0,0-.1-1.21h-2.51V.43h9.86V11.79c0,6.19-2.18,8-9.47,8h-2Z"/><path class="cls-1" d="M286.65,22.26c-.48-1.62-2-2.11-6.92-2.11-4.63,0-7.88.18-8.66.48a1.8,1.8,0,0,0-1,1.74,1.48,1.48,0,0,0,1.2,1.5,53.67,53.67,0,0,0,8.36.42H282c8.9.06,11.37.42,13.71,1.62,3.19,1.56,4.27,3.79,4.27,8.36,0,7.82-3.49,10.17-15.34,10.17H272.33c-9.87,0-14.2-2.83-14.2-9.2v-.78H270c.06,2.23,1.92,2.77,9.44,2.77,7.1,0,8.6-.48,8.6-2.47,0-1.8-1.08-2.23-5.11-2.29l-10-.18c-6.56-.06-8.84-.42-10.95-1.68-2.59-1.5-3.73-4.21-3.73-8.36,0-3.79,1-6,3.19-7.4,2.53-1.5,5.83-2,14.38-2,19.25,0,22.14,1.2,22.38,9.38Z"/></g></g></svg>