<?xml version="1.0" encoding="utf-8"?>
<!-- Generator: Adobe Illustrator 21.1.0, SVG Export Plug-In . SVG Version: 6.00 Build 0)  -->
<svg version="1.1" id="Layer_1" xmlns="http://www.w3.org/2000/svg" xmlns:xlink="http://www.w3.org/1999/xlink" x="0px" y="0px"
	 viewBox="0 0 330 80" style="enable-background:new 0 0 330 80;" xml:space="preserve">
<style type="text/css">
	.st0{fill:url(#Fill-1_1_);}
	.st1{fill:url(#Fill-3_1_);}
	.st2{fill:url(#Fill-5_1_);}
	.st3{fill:url(#Fill-7_1_);}
	.st4{fill:url(#Fill-9_1_);}
	.st5{fill:url(#Fill-11_1_);}
	.st6{fill:url(#Fill-13_1_);}
	.st7{fill:url(#Fill-15_1_);}
</style>
<linearGradient id="Fill-1_1_" gradientUnits="userSpaceOnUse" x1="-225.658" y1="340.5966" x2="-225.658" y2="340.0038" gradientTransform="matrix(59.864 0 0 -41.384 13564.5254 14115.6143)">
	<stop  offset="0" style="stop-color:#1E70D5"/>
	<stop  offset="1" style="stop-color:#231F20"/>
</linearGradient>
<path id="Fill-1" class="st0" d="M61,51.3c1.4,0,2.6-0.1,3.6-0.3l-12.7-7l5-8.3l11.5,7.4c0.1-1.1,0.1-2.1,0.1-3.6
	c0-4.6-0.4-6.6-1.8-7.6c-0.8-0.6-1.9-1-3.2-1.1c-0.7-0.1-8.8-0.2-12.3-0.2c-7.9,0-8.5,0.1-10.4,1.4c-1.8,1.3-2.2,3-2.2,8.7
	c0,6.7,0.3,8,2,9.3c1.2,0.9,2.9,1.2,6,1.2H61z M25.8,35.3c0-5.8,1.1-9,4-11.5c3.4-3,6.9-3.5,21.7-3.5c17.9,0,20.2,0.2,23.7,2
	c3.1,1.5,4.9,3.9,5.7,7.2c0.4,2,0.6,4.9,0.6,13.3c0,3.6-0.1,6-0.3,7.9l4.5,2.7l-4.5,8.3L77,58.9c-2.9,2.2-7.6,2.9-17.5,2.9
	c-20.9,0-23.3-0.2-26.4-1.6c-5-2.3-7.2-6.7-7.2-14.2V35.3z"/>
<linearGradient id="Fill-3_1_" gradientUnits="userSpaceOnUse" x1="-223.4063" y1="337.8469" x2="-223.4063" y2="337.2542" gradientTransform="matrix(37.744 0 0 -28.952 8539.5332 9814.1406)">
	<stop  offset="0" style="stop-color:#1E70D5"/>
	<stop  offset="1" style="stop-color:#231F20"/>
</linearGradient>
<path id="Fill-3" class="st1" d="M99.2,32.8v16.1c0,3.6,1.6,4.6,7.1,4.6c7.2,0,9.2-1.2,9.2-5.4V32.8h10.7v28.5H116v-5.4
	c-0.8,2-1.4,3-2.3,3.8c-1.7,1.4-5.2,2.1-10.2,2.1c-10.8,0-15.1-3.4-15.1-11.9v-17H99.2z"/>
<linearGradient id="Fill-5_1_" gradientUnits="userSpaceOnUse" x1="-223.3973" y1="337.9864" x2="-223.3973" y2="337.3937" gradientTransform="matrix(37.688 0 0 -29.4 8569.9971 9969.1494)">
	<stop  offset="0" style="stop-color:#1E70D5"/>
	<stop  offset="1" style="stop-color:#231F20"/>
</linearGradient>
<path id="Fill-5" class="st2" d="M142.2,52.2c0,1,0.4,1.9,1.2,2.2c0.9,0.4,2.2,0.5,7.2,0.5c7,0,8.4-0.5,8.4-3
	c0-2.6-0.7-2.8-10.4-2.8C143.6,49.1,142.2,49.8,142.2,52.2L142.2,52.2z M159.4,57.9c-3.1,3.4-4.3,3.8-13.7,3.8
	c-7.2,0-9.5-0.4-11.5-2.1c-1.6-1.3-2.4-3.8-2.4-7.4c0-3.6,0.7-5.9,2.4-7.1c2-1.5,5.4-2.2,10.4-2.2c5.6,0,9.7,0.2,11.3,0.7
	c0.9,0.3,1.7,0.7,3,1.8v-0.7c0-5.2-0.3-5.6-5.9-5.6h-6c-2.1,0-3.3,0.2-3.4,2.1H133v-0.4c0-6.4,3.4-8.5,12.6-8.5h12
	c7.9,0,11.8,3.4,11.8,10.6v18.4h-10.1V57.9z"/>
<linearGradient id="Fill-7_1_" gradientUnits="userSpaceOnUse" x1="-222.2049" y1="337.8469" x2="-222.2049" y2="337.2542" gradientTransform="matrix(31.528 0 0 -28.952 7197.2676 9813.6924)">
	<stop  offset="0" style="stop-color:#1E70D5"/>
	<stop  offset="1" style="stop-color:#231F20"/>
</linearGradient>
<path id="Fill-7" class="st3" d="M175.8,32.8H186v5.5c1.2-4.1,4.3-5.9,10.2-5.9c8.1,0,11.1,3,11.1,10.9c0,0.9,0,1.5-0.1,2.8H198
	c-0.1-2.2-0.2-3.1-0.7-3.8c-0.7-0.9-2.5-1.5-4.7-1.5c-3.9,0-6.1,1.7-6.1,4.9v15.6h-10.7V32.8z"/>
<linearGradient id="Fill-9_1_" gradientUnits="userSpaceOnUse" x1="-223.4689" y1="340.4549" x2="-223.4689" y2="339.8621" gradientTransform="matrix(38.136 0 0 -40.488 8752.9473 13805.1484)">
	<stop  offset="0" style="stop-color:#1E70D5"/>
	<stop  offset="1" style="stop-color:#231F20"/>
</linearGradient>
<polygon id="Fill-9" class="st4" points="211.7,20.8 222.4,20.8 222.4,42.1 224.7,42.1 234.1,32.8 248,32.8 233.8,45.9 249.8,61.3 
	235.8,61.3 224.5,49.9 222.4,49.9 222.4,61.3 211.7,61.3 "/>
<linearGradient id="Fill-11_1_" gradientUnits="userSpaceOnUse" x1="-207.9341" y1="332.2778" x2="-207.9341" y2="331.6851" gradientTransform="matrix(10.665 0 0 -18 2473.4155 6001.7666)">
	<stop  offset="0" style="stop-color:#1E70D5"/>
	<stop  offset="1" style="stop-color:#231F20"/>
</linearGradient>
<path id="Fill-11" class="st5" d="M250.5,33.6h1.2c2,0,2.7-0.7,2.7-3c0-0.4,0-0.7-0.1-1.1h-2.3v-8.7h9.2v10.6c0,5.8-2,7.4-8.8,7.4
	h-1.8V33.6z"/>
<linearGradient id="Fill-13_1_" gradientUnits="userSpaceOnUse" x1="-223.5991" y1="337.9864" x2="-223.5991" y2="337.3937" gradientTransform="matrix(38.977 0 0 -29.4 9000.8203 9969.1494)">
	<stop  offset="0" style="stop-color:#1E70D5"/>
	<stop  offset="1" style="stop-color:#231F20"/>
</linearGradient>
<path id="Fill-13" class="st6" d="M292.7,41.1c-0.4-1.5-1.9-2-6.4-2c-4.3,0-7.3,0.2-8.1,0.4c-0.6,0.2-1,0.8-1,1.6
	c0,0.7,0.4,1.2,1.1,1.4c0.9,0.2,3.9,0.4,7.8,0.4h2.2c8.3,0.1,10.6,0.4,12.8,1.5c3,1.5,4,3.5,4,7.8c0,7.3-3.2,9.5-14.3,9.5h-11.5
	c-9.2,0-13.2-2.6-13.2-8.6v-0.7h11.1c0.1,2.1,1.8,2.6,8.8,2.6c6.6,0,8-0.4,8-2.3c0-1.7-1-2.1-4.8-2.1l-9.3-0.2
	c-6.1-0.1-8.2-0.4-10.2-1.6c-2.4-1.4-3.5-3.9-3.5-7.8c0-3.5,1-5.6,3-6.9c2.4-1.4,5.4-1.8,13.4-1.8c17.9,0,20.6,1.1,20.8,8.7H292.7z"
	/>
<linearGradient id="Fill-15_1_" gradientUnits="userSpaceOnUse" x1="-228.8017" y1="343.61" x2="-228.8017" y2="343.0173" gradientTransform="matrix(329.391 0 0 -78.171 75529.9297 26861.3359)">
	<stop  offset="0" style="stop-color:#1E70D5"/>
	<stop  offset="1" style="stop-color:#231F20"/>
</linearGradient>
<path id="Fill-15" class="st7" d="M310.1,79.2H19.3C8.7,79.2,0,70.5,0,59.9V20.3C0,9.7,8.7,1,19.3,1h290.8
	c10.6,0,19.3,8.7,19.3,19.3v39.6C329.4,70.5,320.7,79.2,310.1,79.2z M19.3,6C11.4,6,5,12.4,5,20.3v39.6c0,7.9,6.4,14.3,14.3,14.3
	h290.8c7.9,0,14.3-6.4,14.3-14.3V20.3c0-7.9-6.4-14.3-14.3-14.3H19.3z"/>
</svg>
